<svg version="1.1" xmlns="http://www.w3.org/2000/svg">
    <symbol id="info" viewBox="0 0 330 330">
        <path d="M165 0C74.02 0 0 74.02 0 165s74.02 165 165 165 165-74.018 165-165S255.98 0 165 0zm0 300c-74.44 0-135-60.56-135-135S90.56 30 165 30s135 60.562 135 135-60.56 135-135 135zm-.002-230c-11.026 0-19.996 8.976-19.996 20 0 11.023 8.97 20 19.996 20s19.996-8.968 19.996-20c0-11.033-8.97-20-19.996-20zm.002 70c-8.284 0-15 6.716-15 15v90c0 8.284 6.716 15 15 15s15-6.716 15-15v-90c0-8.284-6.716-15-15-15z"/>
    </symbol>
</svg>
